<?xml version="1.0" encoding="utf-8"?>
<!-- Generator: Adobe Illustrator 21.0.2, SVG Export Plug-In . SVG Version: 6.00 Build 0)  -->
<svg version="1.1" id="Capa_1" xmlns="http://www.w3.org/2000/svg" xmlns:xlink="http://www.w3.org/1999/xlink" x="0px" y="0px"
	 viewBox="0 0 800 800" style="enable-background:new 0 0 800 800;" xml:space="preserve">
<style type="text/css">
	.st0{fill:#FFCE00;}
</style>
<rect x="0" y="0" class="st0" width="800" height="800"/>
<g>
	<path d="M50.9,274.1l-10.7-10.7l-14.5,14.5l67.4,67.4l14.5-14.5L73.7,297l-6.8,6.8l-15.4-15.4l23.1-23.1l53.7,53.7
		c2.7,2.7,4.2,6.1,4.4,10c0.2,4-0.9,7.6-3.3,10.9l-27.2,27.2c-3.3,2.4-7,3.5-10.9,3.3c-3.9-0.2-7.3-1.6-10-4.3L5.1,289.8
		c-2.7-2.7-4.2-6.1-4.4-10c-0.2-4,0.8-7.6,3.2-11l27.2-27.2c3.3-2.4,7-3.5,11-3.2c4,0.2,7.3,1.7,10,4.4l15,15L50.9,274.1z"/>
	<path d="M165.4,303.8L149,320.2l-81.8-115l20.1-20.1l115.1,81.7l-16.6,16.6l-24-17.2l-13.5,13.5L165.4,303.8z M107.7,225.7l27.7,36
		l8.3-8.3L107.7,225.7z"/>
	<path d="M174.6,98.1l98.3,98.3l-16.3,16.3l-52.8-52.8l36.5,54.5l-14.2,14.2l-54.5-36.5l52.8,52.8l-16.3,16.3l-98.3-98.3l25.3-25.3
		l46.3,32.1l-32.1-46.3L174.6,98.1z"/>
	<path d="M226.5,46.2l9.8,9.8l5.6,5.6l-26,26l18.4,18.4L255,85.4l2.8,2.8l9.8,9.8l2.8,2.8l-20.7,20.7l33.5,33.5l26-26l5.6,5.6
		l9.8,9.8l-26,26l-16.3,16.3l-10.2-10.2l-82.8-82.8l-5.2-5.2l16.3-16.3L226.5,46.2z"/>
	<path d="M282.3-0.3c5.1,0.4,9.3,2.2,12.7,5.6l10.5,10.5l2.8,2.8l-3,3L295,31.9l-3,3l-2.8-2.8l-8.9-8.9l-12.6,12.6l17.5,17.5
		l0.7,0.7l14-14c4.2-4.2,9-6.3,14.6-6.5c5.6-0.2,10.3,1.7,14.3,5.6l14,14l22.7,22.7c3.4,3.4,5.2,7.6,5.6,12.7
		c0.2,4.9-1.3,9.4-4.2,13.5l-0.2,0.4l-0.1,0.1L347.2,122l-0.1,0.1l-0.4,0.2c-4.1,3-8.6,4.4-13.5,4.2c-5.1-0.3-9.3-2.2-12.7-5.6
		L310,110.4l-2.8-2.8l2.9-2.9l10.4-10.4l2.9-2.9l2.8,2.8l9,9l12.6-12.6l-33.7-33.7l-14,14c-4.1,4.1-9,6.3-14.6,6.4
		c-5.6,0.1-10.3-1.7-14.3-5.7l-1-1l-1.3-1.3l-19.1-19.1c-3.4-3.4-5.2-7.6-5.6-12.7c-0.2-4.9,1.3-9.4,4.2-13.5l0.3-0.3l0.1-0.1
		l19.4-19.4l0.1-0.1l0.3-0.3C272.9,0.9,277.4-0.5,282.3-0.3z"/>
</g>
<g>
	<path d="M514.9,767.7l-9.8,9.8l-58.4-34l9.5-9.5l-13-13l-9.5,9.5l10.1,10.1l2.9,2.9l14.8,14.8l20.4,20.4l11.1,11.1l-10.6,10.6
		l-7.3-7.3l-59.2-59.2l-3.7-3.7l6.9-6.9l3.8-3.8l10.4-10.4l1.9-1.9c2-2,4.4-3,7.1-3.1c2.8-0.1,5.3,0.8,7.5,2.5l1.1,0.9l19.1,19.1
		c2.1,2.1,3.2,4.5,3.4,7.4c0.2,2.8-0.5,5.3-2.1,7.4L514.9,767.7z"/>
	<path d="M476.7,665.4l7,7l4,4l-17,17l13.1,13.1l13.5-13.5l2,2l7,7l2,2l-13.5,13.5l24,24l17-17l4,4l7,7l-17,17l-10.6,10.6L512,756
		l-59.2-59.2L449,693l10.6-10.6L476.7,665.4z"/>
	<path d="M514.6,632.9c2.7,0.2,5,1.4,7.1,3.4l7.4,7.4l3.2,3.2l-10.6,10.6l-3.2-3.2l-4.4-4.4l-9.5,9.5l48.2,48.2l9.5-9.5l-4.5-4.5
		l-3.2-3.2l10.6-10.6l3.2,3.2l7.5,7.5c2,2,3.1,4.4,3.4,7.1c0.2,2.7-0.4,5.1-1.9,7.4l-17.8,17.8c-2.2,1.5-4.7,2.2-7.4,1.9
		c-2.7-0.2-5-1.4-7.1-3.4L490.9,667c-2-2-3.1-4.4-3.4-7.1c-0.2-2.7,0.4-5.1,1.9-7.4l17.8-17.8C509.4,633.3,511.9,632.6,514.6,632.9z
		"/>
	<path d="M550.7,591.4l70.3,70.3l-2.1,2.1l-6.8,6.8l-1.7,1.7l-35.1-35.1l-9.4,9.4l35.1,35.1l-3.9,3.9l-6.8,6.8L520,622.1l6.8-6.8
		l3.9-3.9l24.1,24.1l9.4-9.4L540,602l1.7-1.7l6.8-6.8L550.7,591.4z"/>
	<path d="M638,644.6l-10.7,10.7l-59.5-81.2l13.1-13.1l81.3,59.4l-10.8,10.8l-17-12.5l-8.8,8.8L638,644.6z M596.1,589.3l20.1,25.5
		l5.4-5.4L596.1,589.3z"/>
	<path d="M698.6,584l-9.8,9.8l-58.4-34l9.5-9.5l-13-13l-9.5,9.5l10.1,10.1l2.9,2.9l14.8,14.8l20.4,20.4l11.1,11.1L666,616.6
		l-7.3-7.3l-59.2-59.2l-3.7-3.7l6.9-6.9l3.8-3.8l10.4-10.4l1.9-1.9c2-2,4.4-3,7.1-3.1c2.8-0.1,5.3,0.8,7.5,2.5l1.1,0.9l19.1,19.1
		c2.1,2.1,3.2,4.5,3.4,7.4c0.2,2.8-0.5,5.3-2.1,7.4L698.6,584z"/>
	<path d="M671.5,507.9l-7.6-7.6l-9.5,9.5l48.2,48.2l9.5-9.5l-24.2-24.2l-4.4,4.4l-11-11l15.1-15.1l38.4,38.4c2,2,3.1,4.3,3.3,7
		c0.3,2.7-0.4,5.2-1.9,7.4l-17.8,17.8c-2.2,1.5-4.7,2.2-7.4,1.9c-2.7-0.2-5-1.3-7-3.3l-54.5-54.5c-1.9-1.9-3.1-4.3-3.3-7
		c-0.3-2.7,0.3-5.2,1.9-7.4l17.8-17.8c2.2-1.5,4.7-2.2,7.4-1.9c2.7,0.3,5.1,1.4,7,3.3l10.7,10.7L671.5,507.9z"/>
	<path d="M697.4,444.6l7,7l4,4l-17,17l13.1,13.1l13.5-13.5l2,2l7,7l2,2l-13.5,13.5l24,24l17-17l4,4l7,7l-17,17L740,542.6l-7.3-7.3
		L673.5,476l-3.7-3.7l10.6-10.6L697.4,444.6z"/>
	<path d="M726.7,415.3c2.1-2.1,4.8-3.1,7.9-3.1c3.1,0.1,5.8,1.2,8,3.4l54.1,54.1c2.2,2.2,3.3,4.9,3.4,7.9c0.1,3.1-1,5.7-3.1,7.8
		l-16.5,16.5l-6.5,6.5l-70.3-70.3l6.8-6.8L726.7,415.3z M734.9,429.3l-9.5,9.5l48.2,48.2l9.5-9.5L734.9,429.3z"/>
</g>
<g>
	<g>
		<g>
			<path d="M741.8,328.6C741.8,328.6,741.8,328.6,741.8,328.6L274.7,796.4c-4.9,4.9-12.9,4.7-18-0.3L3.9,544.3
				c-2.4-2.4-3.8-5.7-3.9-9.1c-0.1-3.4,1.2-6.6,3.5-8.9c0,0,0,0,0,0l467-467.8c2.3-2.3,5.6-3.6,8.9-3.6c3.4,0.1,6.6,1.4,9.1,3.9
				l252.8,251.8C746.5,315.7,746.7,323.7,741.8,328.6z M265.2,769.3l449.4-450.1L480.1,85.6L30.7,535.7L265.2,769.3z"/>
		</g>
		<g>
			<path d="M796.5,199.3C796.5,199.3,796.5,199.3,796.5,199.3l-52.8,52.9c-4.9,4.9-12.9,4.7-18-0.3L547.4,74.4
				c-2.4-2.4-3.8-5.7-3.9-9.1c-0.1-3.4,1.2-6.6,3.5-8.9c0,0,0,0,0,0l52.8-52.9c4.9-4.9,12.9-4.7,18,0.3l178.2,177.5
				c2.4,2.4,3.8,5.7,3.9,9.1C800.1,193.8,798.8,197,796.5,199.3z M734.1,225.1l35.2-35.2L609.4,30.6l-35.2,35.2L734.1,225.1z"/>
		</g>
	</g>
	<g>
		<polygon points="341.6,616 374.1,431.8 313.9,406.2 418.3,223 393.8,395.1 456.3,418.7 		"/>
	</g>
	<g>
		<polygon points="42.8,536.5 264.8,757 264.8,757 201.7,377 		"/>
	</g>
</g>
</svg>
